<?xml version="1.0" standalone="no"?>
<!DOCTYPE svg PUBLIC "-//W3C//DTD SVG 20010904//EN" "http://www.w3.org/TR/2001/REC-SVG-20010904/DTD/svg10.dtd">
<svg xmlns="http://www.w3.org/2000/svg" version="1.0" width="224.000000pt" height="198.000000pt" viewBox="0 0 224.000000 198.000000" preserveAspectRatio="xMidYMid meet">
<metadata>
Created by potrace 1.16, written by Peter Selinger 2001-2019
<meta name="Producer" content="Online-Convert"/></metadata>
<g transform="translate(0.000000,198.000000) scale(0.100000,-0.100000)" fill="#000000" stroke="none">
<path d="M987 1724 c-4 -4 -7 -15 -7 -25 0 -11 -9 -19 -22 -21 -14 -2 -24 -12 -28 -28 -4 -16 -14 -26 -27 -28 -14 -2 -23 -12 -25 -25 -2 -16 -11 -23 -30 -25 -26 -3 -28 -6 -28 -52 0 -43 -3 -49 -22 -52 -15 -2 -24 -11 -26 -25 -3 -20 1 -23 35 -23 49 0 59 7 68 50 7 31 16 45 63 92 8 7 26 25 41 41 21 21 30 24 39 15 7 -7 12 -18 12 -25 0 -9 16 -13 50 -13 39 0 52 4 57 18 4 9 11 20 17 24 16 11 69 -3 86 -22 8 -9 23 -20 32 -23 11 -4 19 -22 23 -50 6 -40 10 -46 37 -51 49 -10 58 -7 68 19 8 21 16 25 47 25 43 0 57 -7 66 -32 3 -10 13 -18 20 -18 21 0 41 -96 29 -146 -5 -22 -7 -54 -5 -71 6 -36 -4 -44 -60 -47 -34 -2 -42 -6 -42 -22 0 -26 -13 -34 -57 -34 -43 0 -51 9 -51 61 0 35 -2 39 -24 39 -16 0 -27 -7 -30 -20 -3 -11 -14 -20 -25 -20 -11 0 -22 9 -25 20 -3 13 -14 20 -28 20 -14 0 -25 -7 -28 -20 -3 -12 -14 -20 -26 -20 -18 0 -21 6 -21 38 0 20 -4 43 -9 50 -12 20 -46 10 -46 -13 0 -16 -10 -22 -53 -29 -45 -8 -52 -13 -50 -30 2 -13 12 -22 26 -24 26 -4 30 -30 5 -39 -11 -4 -22 1 -31 15 -19 28 -52 29 -52 2 0 -11 -7 -23 -16 -27 -21 -8 -50 10 -46 30 1 9 -9 17 -28 20 -21 5 -30 12 -30 26 0 11 -9 22 -19 26 -11 3 -24 19 -30 35 -5 17 -15 30 -20 30 -15 0 -32 -36 -25 -54 4 -10 -2 -15 -23 -18 -37 -4 -37 -32 0 -36 25 -3 28 -7 23 -28 -6 -21 -3 -24 24 -24 25 0 30 -4 30 -25 0 -20 5 -25 25 -25 21 0 25 -5 25 -30 l0 -30 80 0 80 0 0 -50 c0 -45 3 -50 25 -56 l25 -6 0 -129 0 -129 -25 0 c-20 0 -25 -5 -25 -24 0 -19 -6 -25 -27 -28 -22 -2 -28 -8 -26 -25 2 -18 -2 -23 -22 -23 -14 0 -26 -6 -26 -12 -1 -7 -2 -20 -3 -28 -1 -13 -28 -15 -163 -18 l-162 -2 -3 27 c-4 38 -43 40 -43 3 0 -18 5 -25 19 -25 12 0 24 -11 31 -29 l12 -28 198 1 c109 1 202 4 207 7 4 3 8 14 8 25 0 14 7 19 25 19 20 0 25 -5 25 -26 0 -24 2 -25 53 -22 45 3 52 6 55 26 5 33 52 31 52 -3 l0 -24 226 -3 c124 -2 230 0 236 3 5 3 11 15 12 25 4 27 51 26 51 -1 0 -18 8 -20 98 -23 92 -3 98 -4 107 -26 5 -13 15 -26 22 -29 18 -6 48 11 48 27 0 22 24 26 141 26 l109 0 0 25 0 25 -105 0 -105 0 0 55 c0 52 2 55 24 55 18 0 26 6 28 22 2 14 12 24 28 28 24 6 25 8 28 107 l3 102 -28 3 -28 3 -3 103 c-3 102 -3 102 -28 102 l-25 0 2 103 2 102 -26 3 -26 3 2 -103 c2 -99 3 -103 25 -106 21 -3 23 -8 21 -47 -2 -25 0 -47 4 -51 4 -4 7 -31 7 -60 0 -47 3 -54 23 -59 21 -6 22 -12 25 -106 l3 -99 -135 0 -136 0 0 106 c0 104 0 105 -22 102 -22 -3 -23 -8 -26 -105 l-3 -103 25 0 c18 0 25 -6 28 -22 2 -17 11 -24 31 -26 26 -3 27 -6 27 -58 l0 -54 -80 0 c-70 0 -80 2 -80 18 0 21 -18 42 -37 42 -8 0 -13 -12 -13 -30 l0 -30 -134 0 -135 0 -3 27 c-2 20 -9 29 -25 31 -17 3 -23 10 -23 28 0 20 -5 24 -30 24 -25 0 -30 4 -30 24 0 18 -6 25 -22 28 -20 3 -23 10 -26 56 l-3 52 55 0 c53 0 56 1 56 24 0 18 6 25 23 28 14 2 22 10 22 23 0 13 -8 21 -22 23 -17 3 -23 10 -23 28 0 20 -5 24 -31 24 -27 0 -30 3 -27 27 2 19 10 29 28 33 18 5 24 12 23 28 -3 21 1 22 76 22 79 0 80 0 83 28 2 21 9 28 30 30 19 2 28 10 30 25 2 14 11 23 26 25 16 3 22 10 22 28 0 19 5 24 25 24 18 0 25 5 25 20 0 13 -9 22 -25 26 -19 5 -25 13 -25 35 0 24 4 29 26 29 24 0 25 2 22 48 -3 40 -6 47 -25 50 -20 3 -23 9 -23 53 0 46 -2 49 -25 49 -23 0 -29 8 -26 37 1 6 -11 13 -26 15 -20 2 -29 9 -31 26 -3 19 -9 22 -53 22 -46 0 -49 -2 -49 -25 0 -20 -5 -25 -25 -25 -20 0 -25 5 -25 24 0 18 -7 25 -30 30 -24 4 -30 11 -30 31 0 23 -3 25 -50 25 -27 0 -51 5 -51 10 -1 6 -2 16 -3 23 0 6 -11 13 -23 15 -19 3 -23 -1 -23 -22 0 -25 -3 -26 -54 -26 -49 0 -55 2 -58 22 -3 23 -27 35 -41 22z"/>
<path d="M240 1335 c0 -20 -5 -25 -25 -25 l-25 0 0 -105 0 -105 -25 0 -25 0 0 -105 0 -105 -30 0 -30 0 0 -105 0 -105 25 0 c25 0 25 1 25 89 0 102 5 121 30 121 15 0 19 14 25 104 6 97 8 105 28 108 21 3 22 9 25 105 3 96 4 102 25 105 14 2 23 11 25 26 3 18 -1 22 -22 22 -21 0 -26 -5 -26 -25z"/>
<path d="M1930 1335 c0 -20 -5 -25 -25 -25 l-25 0 0 -105 0 -105 -30 0 -31 0 3 -102 c3 -98 4 -103 26 -106 20 -3 22 1 24 55 0 32 2 63 3 68 2 6 3 27 4 47 1 30 5 37 24 40 21 3 22 8 25 101 3 94 4 98 27 107 34 13 34 50 0 50 -20 0 -25 -5 -25 -25z"/>
<path d="M292 1208 c3 -97 4 -103 25 -106 20 -3 22 -11 28 -113 7 -95 10 -109 25 -109 16 0 19 -13 26 -101 6 -94 8 -100 28 -97 20 3 21 10 24 106 l3 102 -31 0 -30 0 0 105 0 105 -25 0 -25 0 0 105 0 105 -25 0 -26 0 3 -102z"/>
<path d="M136 664 c-9 -23 1 -34 30 -34 24 0 25 -2 22 -52 l-3 -53 -93 -3 c-90 -3 -92 -3 -92 -27 0 -25 0 -25 103 -25 106 0 119 -4 130 -32 9 -25 57 -24 57 1 0 26 18 31 121 31 88 0 89 0 89 25 0 25 -1 25 -80 25 l-80 0 0 50 c0 32 5 52 13 54 42 13 45 16 40 35 -5 20 -13 21 -128 21 -103 0 -124 -3 -129 -16z"/>
<path d="M0 155 l0 -155 721 0 c521 0 726 3 742 11 16 9 22 9 25 0 3 -8 106 -11 378 -11 l374 0 0 155 0 155 -1120 0 -1120 0 0 -155z"/>
</g>
</svg>
