<?xml version="1.0" standalone="no"?>
<!DOCTYPE svg PUBLIC "-//W3C//DTD SVG 20010904//EN" "http://www.w3.org/TR/2001/REC-SVG-20010904/DTD/svg10.dtd">
<svg xmlns="http://www.w3.org/2000/svg" version="1.0" width="381.000000pt" height="538.000000pt" viewBox="0 0 381.000000 538.000000" preserveAspectRatio="xMidYMid meet">
<metadata>
Created by potrace 1.16, written by Peter Selinger 2001-2019
<meta name="Producer" content="Online-Convert"/></metadata>
<g transform="translate(0.000000,538.000000) scale(0.100000,-0.100000)" fill="#000000" stroke="none">
<path d="M1317 4713 c-4 -3 -7 -48 -7 -100 l0 -93 615 0 614 0 3 -102 3 -103 103 -3 102 -3 0 -204 0 -205 -205 0 -205 0 0 -100 0 -100 -415 0 -415 0 0 100 0 100 -205 0 -205 0 0 203 0 202 -105 -3 -105 -3 0 -95 0 -94 -192 0 c-106 0 -199 -4 -206 -9 -9 -6 -13 -33 -11 -98 1 -50 -2 -96 -6 -103 -5 -8 -36 -11 -94 -10 -47 1 -92 2 -98 1 -10 -1 -13 -48 -13 -201 l0 -200 105 0 105 0 1 -27 c0 -16 1 -62 2 -103 l2 -75 203 -3 202 -2 0 -620 0 -620 -22 -5 c-13 -3 -57 -6 -98 -7 l-75 -3 0 -200 0 -200 95 0 95 0 3 208 2 207 205 0 205 0 0 -205 0 -205 -205 0 -205 0 0 -105 0 -104 103 -3 102 -3 5 -100 5 -100 307 -3 307 -2 3 -103 3 -102 407 -3 407 -2 3 102 3 103 100 5 100 5 3 202 2 202 -102 3 -103 3 -3 203 -2 202 -69 0 c-38 0 -83 3 -100 6 l-31 7 0 103 0 104 -620 0 -620 0 0 410 0 410 100 0 100 0 2 -207 3 -208 100 0 100 0 3 100 c1 55 7 104 12 109 4 4 94 5 204 1 l196 -7 2 -202 3 -201 102 0 103 0 4 135 c2 74 5 165 5 203 l1 67 93 0 94 0 6 -301 c4 -165 9 -305 12 -310 4 -5 93 -9 206 -9 l199 0 0 105 0 104 103 3 102 3 3 413 2 412 205 0 205 0 0 105 0 105 -205 0 -205 0 0 -105 0 -105 -210 0 -210 0 0 -100 0 -100 -615 0 -615 0 0 100 0 100 -210 0 -210 0 0 105 0 105 -205 0 -205 0 0 205 0 205 305 0 304 0 3 -102 3 -103 208 -3 207 -2 0 -99 0 -99 93 -7 c51 -4 236 -5 412 -4 l320 4 3 103 3 102 204 0 204 0 3 103 3 102 308 3 307 2 0 -204 c0 -226 -3 -216 68 -216 20 0 61 3 90 7 l52 6 -2 201 -3 201 -79 -3 c-129 -6 -125 -9 -128 111 l-3 102 -202 3 -203 2 0 95 0 95 -74 0 c-40 0 -88 3 -105 6 l-31 7 0 98 0 99 -74 0 c-40 0 -88 3 -105 6 l-31 7 0 98 0 99 -608 0 c-335 0 -612 -3 -615 -7z m779 -2679 l35 -6 -1 -87 c-1 -47 -1 -92 -1 -98 1 -10 28 -13 101 -13 l100 0 0 -100 0 -100 -205 0 -205 0 0 -99 0 -99 -92 -4 c-51 -3 -96 -2 -101 2 -4 3 -6 94 -5 201 l3 194 103 3 102 3 0 99 c0 70 4 100 13 103 21 7 117 8 153 1z"/>
<path d="M1200 4510 l-95 -5 0 -95 0 -95 100 0 100 0 3 94 c1 52 -1 97 -5 100 -4 3 -51 4 -103 1z"/>
</g>
</svg>
